<svg width="105" height="222" viewBox="0 0 105 222" fill="none" xmlns="http://www.w3.org/2000/svg">
<path fill-rule="evenodd" clip-rule="evenodd" d="M70.4563 33.861L36.6837 102.084L16.2115 172.298C15.1645 174.214 14.0272 176.914 13.1647 179.991L12.9103 179.805L0.469238 193.658L3.08652 195.562L11.8058 187.951C11.7189 189.582 11.7615 191.223 11.9731 192.83C11.9588 193.05 12.0462 193.385 12.2243 193.809L9.07959 216.248L11.7269 216.441L16.4421 199.793C16.9841 200.385 17.5639 200.977 18.1752 201.553L18.0564 221.088L20.7066 220.939L23.2747 205.332C24.4766 205.981 25.7193 206.476 26.9735 206.746L27.1848 219.069L29.8332 218.896L32.2675 206.338C32.2931 206.328 32.3186 206.317 32.3442 206.306C33.8153 205.678 35.1759 204.832 36.4099 203.812L35.9567 213.815L38.4456 213.69L40.6133 198.944C44.1326 193.279 45.2405 185.743 42.8881 179.281C42.8645 179.216 42.8406 179.152 42.8165 179.088L59.4532 112.763L90.6438 43.3287L104.251 7.05182L96.739 3.52896L89.2274 0.00610352L70.4563 33.861Z" fill="#FFE9DC"/>
</svg>
