<svg width="124" height="217" viewBox="0 0 124 217" fill="none" xmlns="http://www.w3.org/2000/svg">
<path fill-rule="evenodd" clip-rule="evenodd" d="M35.8311 32.9832L73.7694 98.9154L103.94 165.505C105.249 166.405 107.802 170.43 109.613 175.62L109.855 175.419L123.124 188.452L120.635 190.519L111.466 183.478C111.655 185.099 111.715 186.739 111.605 188.356C111.633 188.575 111.567 188.915 111.416 189.348L115.955 211.54L113.328 211.9L107.586 195.587C107.082 196.213 106.541 196.84 105.968 197.454L107.31 216.94L104.658 216.959L101.121 201.548C99.9637 202.273 98.7558 202.846 97.5224 203.195L98.0833 215.504L95.4322 215.499L92.2194 203.124C92.1932 203.115 92.167 203.106 92.1408 203.096C90.6349 202.563 89.2256 201.805 87.9315 200.865L89.0095 210.819L86.5206 210.851L83.4364 196.275C79.9923 191.434 78.366 184.987 79.4294 178.97L51.7394 111.016L16.2995 43.7119L0.464111 8.37689L7.73172 4.38486L14.9993 0.392822L35.8311 32.9832Z" fill="#F9E3D7"/>
</svg>
