<svg width="227" height="50" viewBox="0 0 227 50" fill="none" xmlns="http://www.w3.org/2000/svg">
<ellipse cx="35.0011" cy="27.558" rx="28.1278" ry="21.5206" fill="white"/>
<ellipse cx="35.7413" cy="28.1913" rx="22.9463" ry="19.6217" fill="#96D5E2"/>
<ellipse cx="35.7411" cy="28.1911" rx="8.14225" ry="6.96255" fill="#46808C"/>
<path d="M69.7905 19.9624L54.7712 8.72453C49.1447 4.51462 42.3064 2.2395 35.2792 2.2395V2.2395C25.7132 2.2395 16.6319 6.4492 10.4499 13.7493L9.84651 14.4619C6.42945 18.497 3.98412 23.2625 2.69883 28.3915L2.43188 29.4567" stroke="black" stroke-width="4"/>
<ellipse cx="190.444" cy="27.558" rx="28.1278" ry="21.5206" fill="white"/>
<ellipse cx="191.184" cy="28.1913" rx="22.9463" ry="19.6217" fill="#96D5E2"/>
<ellipse cx="191.184" cy="28.1911" rx="8.14225" ry="6.96255" fill="#46808C"/>
<path d="M225.234 19.9624L210.214 8.72453C204.588 4.51462 197.749 2.2395 190.722 2.2395V2.2395C181.156 2.2395 172.075 6.4492 165.893 13.7493L165.29 14.4619C161.873 18.497 159.427 23.2625 158.142 28.3915L157.875 29.4567" stroke="black" stroke-width="4"/>
</svg>
