<svg width="425" height="363" viewBox="0 0 425 363" fill="none" xmlns="http://www.w3.org/2000/svg">
<path d="M385.711 202.699C383.495 220.626 373.61 234.159 389.813 236.163C406.017 238.166 419.212 220.626 421.429 202.699C423.645 184.771 413.73 176.701 397.527 174.698C381.323 172.695 387.927 184.772 385.711 202.699Z" fill="#F9E3D7"/>
<path d="M390.501 204.329C389.09 215.742 382.797 224.358 393.113 225.634C403.429 226.909 411.752 218.951 413.163 207.537C414.574 196.123 408.539 185.576 398.223 184.301C387.906 183.026 391.912 192.915 390.501 204.329Z" fill="#EBD7CC"/>
<path d="M163.004 3.26544C173.239 1.09444 183.673 0 194.135 0H258.107C271.14 0 284.123 2.01898 296.543 5.96805C339.136 19.5114 371.526 54.5584 381.578 98.1086L387.908 133.554L390.44 168.367L388.35 232.631C388.057 241.649 386.544 250.587 383.853 259.2L380.719 269.233C371.082 300.079 347.133 324.366 316.426 334.435L250.297 356.119C238.448 360.004 225.775 360.653 213.591 358L122.883 338.245C100.6 333.392 80.6444 321.067 66.3267 303.316L60.0499 295.534C56.725 291.412 54.0761 286.788 52.2024 281.834L42.4246 255.986C41.8484 254.463 41.4604 252.875 41.2692 251.258L34.33 192.553C33.3261 184.06 33.4159 175.473 34.5972 167.002L39.0887 134.796C40.7213 123.09 44.4164 111.765 50.0023 101.349L61.9207 79.1241C82.8012 40.1869 119.783 12.4335 163.004 3.26544Z" fill="#FFE9DC"/>
<path d="M39.0116 202.875C41.2417 220.915 51.1892 234.534 34.8833 236.549C18.5775 238.565 5.29879 220.915 3.06864 202.875C0.838478 184.834 10.8153 176.712 27.1212 174.697C43.427 172.681 36.7814 184.834 39.0116 202.875Z" fill="#F9E3D7"/>
<path d="M34.1913 204.514C35.6112 216 41.9443 224.67 31.563 225.954C21.1817 227.237 12.8063 219.229 11.3865 207.743C9.96659 196.257 16.0399 185.644 26.4212 184.36C36.8026 183.077 32.7714 193.029 34.1913 204.514Z" fill="#EBD7CC"/>
</svg>
